<svg width="24" height="24" viewBox="0 0 24 24" fill="none" xmlns="http://www.w3.org/2000/svg">
<path fill-rule="evenodd" clip-rule="evenodd" d="M24 12C24 18.624 18.624 24 12 24C5.376 24 0 18.624 0 12C0 5.376 5.376 0 12 0C18.624 0 24 5.376 24 12ZM8.40002 14.7C9.22802 14.7 9.90002 14.028 9.90002 13.2C9.90002 12.372 9.22802 11.7 8.40002 11.7C7.57202 11.7 6.90002 12.372 6.90002 13.2C6.90002 14.028 7.57202 14.7 8.40002 14.7ZM14.1 13.2C14.1 12.372 14.772 11.7 15.6 11.7C16.428 11.7 17.1 12.372 17.1 13.2C17.1 14.028 16.428 14.7 15.6 14.7C14.772 14.7 14.1 14.028 14.1 13.2ZM18.6002 7.2C15.1202 7.2 12.0722 5.328 10.3922 2.544C10.9082 2.46 11.4482 2.4 12.0002 2.4C15.4802 2.4 18.5282 4.272 20.2082 7.056C19.6922 7.14 19.1522 7.2 18.6002 7.2ZM2.90393 8.96396C4.95593 7.79996 6.53993 5.90396 7.29593 3.63596C5.24393 4.79996 3.65993 6.69596 2.90393 8.96396ZM21.204 9.312C21.456 10.164 21.6 11.064 21.6 12C21.6 17.292 17.292 21.6 12 21.6C6.70802 21.6 2.40002 17.292 2.40002 12C2.40002 11.9795 2.40142 11.9591 2.40278 11.9391C2.40542 11.9005 2.40793 11.8636 2.40002 11.832C5.52002 10.656 8.02802 8.244 9.28802 5.172C11.496 7.872 14.844 9.6 18.6 9.6C19.5 9.6 20.364 9.492 21.204 9.312Z" fill="#C6C6C6"/>
</svg>
