<svg width="20" height="20" viewBox="0 0 20 20" fill="none" xmlns="http://www.w3.org/2000/svg">
<path fill-rule="evenodd" clip-rule="evenodd" d="M20 10C20 15.52 15.52 20 10 20C4.48 20 0 15.52 0 10C0 4.48 4.48 0 10 0C15.52 0 20 4.48 20 10ZM7 12.25C7.69 12.25 8.25 11.69 8.25 11C8.25 10.31 7.69 9.75001 7 9.75001C6.31 9.75001 5.75 10.31 5.75 11C5.75 11.69 6.31 12.25 7 12.25ZM11.75 11C11.75 10.31 12.31 9.75001 13 9.75001C13.69 9.75001 14.25 10.31 14.25 11C14.25 11.69 13.69 12.25 13 12.25C12.31 12.25 11.75 11.69 11.75 11ZM15.5002 6.00002C12.6002 6.00002 10.0602 4.44002 8.66016 2.12002C9.09016 2.05002 9.54016 2.00002 10.0002 2.00002C12.9002 2.00002 15.4402 3.56002 16.8402 5.88002C16.4102 5.95002 15.9602 6.00002 15.5002 6.00002ZM2.41992 7.46999C4.12992 6.49999 5.44992 4.91999 6.07992 3.02999C4.36992 3.99999 3.04992 5.57999 2.41992 7.46999ZM17.67 7.76C17.88 8.47 18 9.22 18 10C18 14.41 14.41 18 10 18C5.59 18 2 14.41 2 10C2 9.98294 2.00116 9.96589 2.0023 9.94923C2.00449 9.91705 2.00659 9.88635 2 9.86C4.6 8.88 6.69 6.87 7.74 4.31C9.58 6.56 12.37 8 15.5 8C16.25 8 16.97 7.91 17.67 7.76Z" fill="white"/>
</svg>
