<svg width="20" height="20" viewBox="0 0 20 20" fill="none" xmlns="http://www.w3.org/2000/svg">
<path d="M10 0C7.33276 0.0141001 4.78204 0.803455 2.90737 2.19491C1.0327 3.58637 -0.0128296 5.4663 0.000118852 7.42234C0.000118852 10.036 1.63646 12.9363 4.8637 16.0423C6.31193 17.4394 7.93105 18.7365 9.70091 19.9177C9.78374 19.9707 9.89 20 10 20C10.11 20 10.2163 19.9707 10.2991 19.9177C12.0689 18.7365 13.6881 17.4394 15.1363 16.0423C18.3635 12.9363 19.9999 10.036 19.9999 7.42234C20.0128 5.4663 18.9673 3.58637 17.0926 2.19491C15.218 0.803455 12.6672 0.0141001 10 0ZM10 19.2153C8.39684 18.1193 0.909199 12.7153 0.909199 7.42234C0.909199 5.65423 1.86698 3.95853 3.57183 2.70829C5.27669 1.45805 7.58897 0.755667 10 0.755667C12.411 0.755667 14.7233 1.45805 16.4282 2.70829C18.133 3.95853 19.0908 5.65423 19.0908 7.42234C19.0908 12.7157 11.6032 18.1193 10 19.2153Z" fill="white"/>
<path d="M10.0001 1.33337C8.38189 1.33337 6.80004 1.68527 5.45456 2.34456C4.10909 3.00385 3.06041 3.94092 2.44116 5.03727C1.8219 6.13363 1.65988 7.34003 1.97557 8.50392C2.29127 9.6678 3.0705 10.7369 4.21473 11.576C5.35897 12.4151 6.81681 12.9866 8.40391 13.2181C9.99101 13.4496 11.6361 13.3308 13.1311 12.8767C14.6261 12.4225 15.9039 11.6535 16.8029 10.6668C17.702 9.6801 18.1818 8.52006 18.1818 7.33338C18.1793 5.74264 17.3165 4.2176 15.7826 3.09278C14.2488 1.96796 12.1692 1.33523 10.0001 1.33337ZM10.0001 12.6667C8.56169 12.6667 7.1556 12.3539 5.95962 11.7679C4.76364 11.1818 3.83149 10.3489 3.28104 9.37435C2.73059 8.39982 2.58657 7.32746 2.86718 6.29289C3.1478 5.25833 3.84045 4.30802 4.85755 3.56214C5.87465 2.81626 7.17051 2.30831 8.58126 2.10252C9.99202 1.89673 11.4543 2.00235 12.7832 2.40602C14.1121 2.80968 15.2479 3.49327 16.0471 4.37033C16.8462 5.2474 17.2727 6.27854 17.2727 7.33338C17.2704 8.74735 16.5035 10.1029 15.1401 11.1028C13.7767 12.1026 11.9282 12.665 10.0001 12.6667Z" fill="white"/>
<path d="M14.9998 6.00004H11.8181V3.66671C11.8181 3.5783 11.7702 3.49352 11.6849 3.43101C11.5997 3.36849 11.4841 3.33337 11.3635 3.33337H8.63627C8.51572 3.33337 8.4001 3.36849 8.31486 3.43101C8.22962 3.49352 8.18173 3.5783 8.18173 3.66671V6.00004H4.99995C4.8794 6.00004 4.76378 6.03516 4.67854 6.09767C4.5933 6.16018 4.54541 6.24497 4.54541 6.33338V8.33338C4.54541 8.42178 4.5933 8.50657 4.67854 8.56908C4.76378 8.63159 4.8794 8.66671 4.99995 8.66671H8.18173V11C8.18173 11.0884 8.22962 11.1732 8.31486 11.2357C8.4001 11.2983 8.51572 11.3334 8.63627 11.3334H11.3635C11.4841 11.3334 11.5997 11.2983 11.6849 11.2357C11.7702 11.1732 11.8181 11.0884 11.8181 11V8.66671H14.9998C15.1204 8.66671 15.236 8.63159 15.3212 8.56908C15.4065 8.50657 15.4544 8.42178 15.4544 8.33338V6.33338C15.4544 6.24497 15.4065 6.16018 15.3212 6.09767C15.236 6.03516 15.1204 6.00004 14.9998 6.00004ZM14.5453 8.00004H11.3635C11.243 8.00004 11.1273 8.03516 11.0421 8.09767C10.9569 8.16019 10.909 8.24497 10.909 8.33338V10.6667H9.09081V8.33338C9.09081 8.24497 9.04292 8.16019 8.95768 8.09767C8.87244 8.03516 8.75682 8.00004 8.63627 8.00004H5.45449V6.66671H8.63627C8.75682 6.66671 8.87244 6.63159 8.95768 6.56908C9.04292 6.50657 9.09081 6.42178 9.09081 6.33338V4.00004H10.909V6.33338C10.909 6.42178 10.9569 6.50657 11.0421 6.56908C11.1273 6.63159 11.243 6.66671 11.3635 6.66671H14.5453V8.00004Z" fill="white"/>
</svg>
