<svg width="24" height="24" viewBox="0 0 24 24" fill="none" xmlns="http://www.w3.org/2000/svg">
<path d="M12 0C8.79931 0.0169201 5.73844 0.964147 3.48884 2.63389C1.23925 4.30364 -0.0153956 6.55957 0.000142623 8.9068C0.000142623 12.0432 1.96376 15.5236 5.83644 19.2508C7.57431 20.9273 9.51726 22.4838 11.6411 23.9012C11.7405 23.9649 11.868 24 12 24C12.132 24 12.2595 23.9649 12.3589 23.9012C14.4827 22.4838 16.4257 20.9273 18.1636 19.2508C22.0362 15.5236 23.9999 12.0432 23.9999 8.9068C24.0154 6.55957 22.7608 4.30364 20.5112 2.63389C18.2616 0.964147 15.2007 0.0169201 12 0ZM12 23.0584C10.0762 21.7432 1.09104 15.2584 1.09104 8.9068C1.09104 6.78507 2.24037 4.75024 4.2862 3.24995C6.33203 1.74966 9.10676 0.9068 12 0.9068C14.8932 0.9068 17.668 1.74966 19.7138 3.24995C21.7596 4.75024 22.909 6.78507 22.909 8.9068C22.909 15.2588 13.9238 21.7432 12 23.0584Z" fill="#C6C6C6"/>
<path d="M12.0001 1.6001C10.0582 1.6001 8.16002 2.02237 6.54545 2.81352C4.93088 3.60466 3.67247 4.72915 2.92937 6.04478C2.18626 7.36041 1.99183 8.80809 2.37066 10.2048C2.74949 11.6014 3.68457 12.8843 5.05766 13.8913C6.43074 14.8982 8.18015 15.5839 10.0847 15.8618C11.9892 16.1396 13.9633 15.997 15.7573 15.452C17.5513 14.9071 19.0847 13.9842 20.1635 12.8002C21.2423 11.6162 21.8181 10.2241 21.8181 8.8001C21.8151 6.89122 20.7797 5.06117 18.9391 3.71138C17.0986 2.3616 14.6031 1.60232 12.0001 1.6001ZM12.0001 15.2001C10.274 15.2001 8.5867 14.8247 7.15152 14.1215C5.71635 13.4183 4.59776 12.4187 3.93722 11.2493C3.27668 10.0798 3.10386 8.793 3.4406 7.55152C3.77734 6.31004 4.60852 5.16967 5.82904 4.27462C7.04955 3.37956 8.60459 2.77002 10.2975 2.52307C11.9904 2.27613 13.7451 2.40287 15.3398 2.88727C16.9345 3.37167 18.2975 4.19197 19.2565 5.24445C20.2154 6.29692 20.7272 7.5343 20.7272 8.8001C20.7245 10.4969 19.8042 12.1236 18.1681 13.3234C16.532 14.5232 14.3138 15.1981 12.0001 15.2001Z" fill="#C6C6C6"/>
<path d="M17.9998 7.2H14.1816V4.4C14.1816 4.29391 14.1242 4.19217 14.0219 4.11716C13.9196 4.04214 13.7809 4 13.6362 4H10.3635C10.2188 4 10.0801 4.04214 9.97781 4.11716C9.87552 4.19217 9.81805 4.29391 9.81805 4.4V7.2H5.99992C5.85525 7.2 5.71652 7.24214 5.61423 7.31716C5.51193 7.39217 5.45447 7.49391 5.45447 7.6V10C5.45447 10.1061 5.51193 10.2078 5.61423 10.2828C5.71652 10.3579 5.85525 10.4 5.99992 10.4H9.81805V13.2C9.81805 13.3061 9.87552 13.4078 9.97781 13.4828C10.0801 13.5579 10.2188 13.6 10.3635 13.6H13.6362C13.7809 13.6 13.9196 13.5579 14.0219 13.4828C14.1242 13.4078 14.1816 13.3061 14.1816 13.2V10.4H17.9998C18.1444 10.4 18.2832 10.3579 18.3855 10.2828C18.4878 10.2078 18.5452 10.1061 18.5452 10V7.6C18.5452 7.49391 18.4878 7.39217 18.3855 7.31716C18.2832 7.24214 18.1444 7.2 17.9998 7.2ZM17.4543 9.6H13.6362C13.4915 9.6 13.3528 9.64214 13.2505 9.71716C13.1482 9.79217 13.0907 9.89392 13.0907 10V12.8H10.9089V10C10.9089 9.89392 10.8515 9.79217 10.7492 9.71716C10.6469 9.64214 10.5082 9.6 10.3635 9.6H6.54536V8H10.3635C10.5082 8 10.6469 7.95786 10.7492 7.88284C10.8515 7.80783 10.9089 7.70609 10.9089 7.6V4.8H13.0907V7.6C13.0907 7.70609 13.1482 7.80783 13.2505 7.88284C13.3528 7.95786 13.4915 8 13.6362 8H17.4543V9.6Z" fill="#C6C6C6"/>
</svg>
