<svg width="86" height="86" viewBox="0 0 86 86" fill="none" xmlns="http://www.w3.org/2000/svg">
<path d="M32.3667 68H30.241L31.7441 66.2929C32.5546 65.3724 33.0607 64.1752 33.1968 62.8765C31.0819 61.3002 29.5354 59.2264 28.7075 56.8481C27.8803 54.4717 27.7763 51.8556 28.4069 49.2827C29.1636 46.1954 30.9382 43.3815 33.4039 41.3591C36.0834 39.1616 39.4189 38 43.0501 38C47.6245 38 51.4801 39.4926 54.2001 42.3163C56.6505 44.8603 58 48.2917 58 51.9785C58 53.7697 57.6789 55.5126 57.0455 57.1587C56.3902 58.8621 55.4305 60.3789 54.1931 61.6667C51.4695 64.5015 47.6162 66 43.0501 66C41.355 66 39.5862 65.743 38.007 65.2714C36.5122 67.0129 34.4866 68 32.3667 68ZM43.0501 40C35.769 40 31.3013 44.9315 30.1034 49.819C28.9714 54.4377 30.6401 58.8019 34.5671 61.4933L35.0059 61.7941L34.9924 62.3759C34.9657 63.5275 34.7239 64.6367 34.2913 65.6393C35.3449 65.2345 36.3009 64.5005 37.0496 63.4959L37.4219 62.9964L37.9739 63.1839C39.5232 63.7102 41.3259 64 43.0501 64C52.1118 64 56.239 57.7685 56.239 51.9785C56.239 48.8601 55.0929 45.9529 53.0119 43.7925C50.622 41.3115 47.1773 40 43.0501 40Z" fill="#2D91BC"/>
<path d="M20.0667 35.2734C15.3244 35.2734 11.4667 38.6641 11.4667 42.832V63.3242C11.4667 67.4922 15.3244 70.8828 20.0667 70.8828C24.8089 70.8828 28.6667 67.4922 28.6667 63.3242V42.832C28.6667 38.6641 24.8089 35.2734 20.0667 35.2734Z" fill="#2D91BC"/>
<path d="M5.73333 42.832C5.73333 42.1052 5.84246 41.4031 5.97757 40.7099C2.52267 41.6914 0 44.5119 0 47.8711V58.2852C0 61.6444 2.52267 64.4649 5.97757 65.4463C5.84246 64.7531 5.73333 64.051 5.73333 63.3242V42.832Z" fill="#2D91BC"/>
<path d="M65.9334 35.2734C61.1911 35.2734 57.3334 38.6641 57.3334 42.832V63.3242C57.3334 67.4922 61.1911 70.8828 65.9334 70.8828C66.7953 70.8828 67.6117 70.737 68.3972 70.5287C67.33 73.6377 64.0805 75.9219 60.2 75.9219H51.072C49.8846 72.9955 46.7324 70.8828 43 70.8828C38.2578 70.8828 34.4 74.2734 34.4 78.4414C34.4 82.6094 38.2578 86 43 86C46.7324 86 49.8846 83.8873 51.072 80.9609H60.2C68.103 80.9609 74.5334 75.3093 74.5334 68.3633V63.3242V42.832C74.5334 38.6641 70.6756 35.2734 65.9334 35.2734Z" fill="#2D91BC"/>
<path d="M80.0224 40.7099C80.1575 41.4031 80.2666 42.1052 80.2666 42.832V63.3242C80.2666 64.051 80.1575 64.7531 80.0224 65.4463C83.4773 64.4649 86 61.6444 86 58.2852V47.8711C86 44.5119 83.4773 41.6914 80.0224 40.7099Z" fill="#2D91BC"/>
<path d="M43 0C19.2885 0 0 16.9528 0 37.793V37.8573C1.70796 36.7208 3.68405 35.8892 5.86463 35.5168C7.20451 18.5187 23.3259 5.03906 43 5.03906C62.6741 5.03906 78.7955 18.5187 80.1354 35.5167C82.3158 35.889 84.2919 36.7208 86 37.8571V37.793C86 16.9528 66.7115 0 43 0Z" fill="#2D91BC"/>
<path d="M48.5104 46.4896C46.905 44.8842 44.7704 44 42.5 44C40.2296 44 38.095 44.8842 36.4896 46.4896C34.8842 48.095 34 50.2296 34 52.5C34 54.7704 34.8842 56.905 36.4896 58.5104C38.095 60.1158 40.2296 61 42.5 61C44.7704 61 46.905 60.1158 48.5104 58.5104C50.1158 56.905 51 54.7704 51 52.5C51 50.2296 50.1158 48.095 48.5104 46.4896ZM47.5328 54.6005H44.6005V57.5328H40.3995V54.6005H37.4672V50.3995H40.3995V47.4672H44.6005V50.3995H47.5328V54.6005Z" fill="#2D91BC"/>
</svg>
